<svg xmlns="http://www.w3.org/2000/svg" version="1.1" xmlns:xlink="http://www.w3.org/1999/xlink" width="374" height="374"><svg xmlns="http://www.w3.org/2000/svg" version="1.1" xmlns:xlink="http://www.w3.org/1999/xlink" width="374" height="374"><svg xmlns="http://www.w3.org/2000/svg" viewBox="0 0 374 374" width="374" height="374"><defs></defs><g transform="matrix(1,0,0,1,-23.143404873,-85.842687333)">
<g>
	<g>
		<path d="M42.37952417358427,317.2119733558137 C45.08077208358427,340.2194494658137 50.42057229358427,346.9194634658137 53.33716403358427,351.3336422858137 C56.253755763584266,355.7478211158137 56.747139013584274,357.8761647758137 61.085802933584276,366.1818875658137 C65.42446686358427,374.4876103658137 84.66457531358427,408.6827997358137 124.41110644358426,428.7025505158137 C164.15763757358428,448.7223013058137 224.41059138358426,454.56661350581373 267.72940767358426,442.61694869581373 C311.0482239635843,430.66728388581373 333.2585832835843,406.5392892058137 351.91151664358426,382.13920451581373 C370.5644499935843,357.7391198158137 385.65995739358425,333.0669450858137 381.82747272358426,313.9087655558137 C377.99498804358427,294.75058602581373 359.4088307335843,275.4907545358137 342.5677566235843,264.17871895581374 C325.72668251358425,252.8666833758137 310.6306915835843,249.50244370581373 298.5401491935843,236.1611505958137 C286.4496068135843,222.8198574858137 277.3645129735843,199.5015109358137 262.5175613035843,184.12852363581374 C247.67060963358426,168.7555363358137 227.06180011358427,161.3279082758137 208.48367946358428,162.1147199258137 C189.90555880358428,162.9015315758137 173.35812699358428,171.90278293581372 162.4548171535843,186.12977852581372 C151.55150731358427,200.35677411581372 146.29231943358428,219.8095139358137 130.43473902358429,232.15864082581373 C114.57715862358427,244.50776772581372 88.12118568358427,249.7532816958137 69.39646509358427,262.1774640758137 C50.67174450358427,274.6016464558137 39.67827626358427,294.2044972558137 42.37952417358427,317.2119733558137 ZM236.17084152358427,194.35985375581373 C239.50974064358428,194.35985375581373 242.2219310935843,197.07204421581372 242.2219310935843,200.41094332581372 C242.2219310935843,203.74984244581373 239.50974064358428,206.4620328958137 236.17084152358427,206.4620328958137 C232.83194241358427,206.4620328958137 230.11975195358428,203.74984244581373 230.11975195358428,200.41094332581372 C230.11975195358428,197.07204421581372 232.83194241358427,194.35985375581373 236.17084152358427,194.35985375581373 ZM187.30108957358428,186.98328742581373 C190.63998868358428,186.98328742581373 193.35217914358427,189.6954778758137 193.35217914358427,193.03437699581372 C193.35217914358427,196.37327610581372 190.63998868358428,199.0854665658137 187.30108957358428,199.0854665658137 C183.96219045358427,199.0854665658137 181.25000000358426,196.37327610581372 181.25000000358426,193.03437699581372 C181.25000000358426,189.6954778758137 183.96219045358427,186.98328742581373 187.30108957358428,186.98328742581373 Z" fill="#ffffff" stroke="#ffffff" stroke-width="4" stroke-linejoin="round" style="paint-order: stroke;"></path>
	</g>
	<g>
		<path d="M212.5,472 C315.68375386,472 399.5,388.18375385999997 399.5,285 C399.5,181.81624613999998 315.68375386,98 212.5,98 C109.31624614,98 25.5,181.81624614000003 25.5,285 C25.5,388.18375386 109.31624614,472 212.5,472 ZM213.0000006,111.00000064 C309.0105504,111.00000064 386.99999995999997,188.98945019999996 386.99999995999997,285 C386.99999995999997,381.0105498 309.0105504,458.99999936 213.0000006,458.99999936 C116.98944706,458.99999936 39.00000123999999,381.01054980000004 39.00000123999999,285 C39.00000123999999,188.98945020000002 116.98944706,111.00000064 213.0000006,111.00000064 Z" transform="matrix(1,0,0,1,-2.356595127,-12.157312667)" fill="#fefefe" stroke="#ffffff" stroke-width="2"></path>
	</g>
</g></g></svg></svg><style>@media (prefers-color-scheme: light) { :root { filter: contrast(1) brightness(0.1); } }
@media (prefers-color-scheme: dark) { :root { filter: none; } }
</style></svg>